{"title":"Jobs.2013.HDRip.XViD-VAiN","uid":8918728,"size":1494005907,"categoryP":"video","categoryS":"movies","magnet":"?xt=urn:btih:09c4fddcc6c8ff8a94f5740c349a88fff74d94e8&amp;dn=Jobs.2013.HDRip.XViD-VAiN&amp;tr=udp%3A%2F%2Ftracker.openbittorrent.com%3A80&amp;tr=udp%3A%2F%2Fopen.demonii.com%3A1337&amp;tr=udp%3A%2F%2Ftracker.coppersurfer.tk%3A6969&amp;tr=udp%3A%2F%2Fexodus.desync.com%3A6969","seeders":1,"leechers":0,"uploader":"xxxlavalxxx","files":-1,"time":1379202848,"description":" &lt;a href=&quot;\nhttp://www.imdb.com/title/tt2357129/&quot; rel=&quot;nofollow&quot; target=&quot;_NEW&quot;&gt;\nhttp://www.imdb.com/title/tt2357129/&lt;/a&gt;\n\n\n\n\nThe story of Steve Jobs' ascension from college dropout into one of the most revered creative entrepreneurs of the 20th century. \n\n\n\nDirector:\n Joshua Michael Stern \n\nWriter:\n Matt Whiteley \n\nStars:\n Ashton Kutcher, Dermot Mulroney, Josh Gad \n\nGenres:\n  Biography |  Drama \n\nCountry:\n USA \n\nLanguage:\n English \n\n\n\n\nJobs.2013.HDRip.XViD-VAiN\n\n iMDB........: http://www.imdb.com/title/tt2357129/\n PLOT........: The story of Steve Jobs' ascension from college dropout into one of the most revered creative entrepreneurs of the 20th century.\n\n\n T E C H N i C A L . i N F O . . .      \n Format                                   : AVI\n Format/Info                              : Audio Video Interleave\n File size                                : 1.38 GiB\n Duration                                 : 2h 7mn\n Overall bit rate                         : 1 543 Kbps\n Writing application                      : VirtualDubMod 1.5.10.2 (build 2540/release)\n Writing library                          : VirtualDubMod build 2540/release\n\n Video\n ID                                       : 0\n Format                                   : MPEG-4 Visual\n Format profile                           : Advanced Simple@L5\n Format settings, BVOP                    : 1\n Format settings, QPel                    : No\n Format settings, GMC                     : No warppoints\n Format settings, Matrix                  : Default (MPEG)\n Codec ID                                 : XVID\n Codec ID/Hint                            : XviD\n Duration                                 : 2h 7mn\n Bit rate                                 : 1 340 Kbps\n Width                                    : 720 pixels\n Height                                   : 266 pixels\n Display aspect ratio                     : 2.707\n Frame rate                               : 29.970 fps\n Color space                              : YUV\n Chroma subsampling                       : 4:2:0\n Bit depth                                : 8 bits\n Scan type                                : Progressive\n Compression mode                         : Lossy\n Bits/(Pixel*Frame)                       : 0.233\n Stream size                              : 1.19 GiB (87%)\n Writing library                          : XviD 1.2.1 (UTC 2008-12-04)\n\n Audio\n ID                                       : 1\n Format                                   : AC-3\n Format/Info                              : Audio Coding 3\n Mode extension                           : CM (complete main)\n Format settings, Endianness              : Big\n Codec ID                                 : 2000\n Duration                                 : 2h 7mn\n Bit rate mode                            : Constant\n Bit rate                                 : 192 Kbps\n Channel(s)                               : 2 channels\n Channel positions                        : Front: L R\n Sampling rate                            : 48.0 KHz\n Bit depth                                : 16 bits\n Compression mode                         : Lossy\n Stream size                              : 175 MiB (12%)\n Alignment                                : Split accross interleaves\n Interleave, duration                     : 33 ms (1.00 video frame)\n Interleave, preload duration             : 500 ms\n\n\n\n E N C O D E R S . N O T E S . . .       \n\n SOURCE......: JYK (BIG THNX)\n SAMPLE......: Yes\n ADDED NOTE..:  \n just a stipped down rip. down and dirty. wokring with new sors to have better optios will have subs but better q. this aint to bad and ya can haz or not\n\n all i ask is that u knob rg stop stealing my nfo's. copying my humours, details and info just makes u look stoopid. get ova it, stop being rival grps, ya e-peens can't be as big as mine no matter what u brag. go back to ur home site and keep there no one looking for generic chip quality and stoopid duper scripts.\n\n\n\n &lt;a href=&quot;\nhttp://bayimg.com/oapbpaaEJ&quot; rel=&quot;nofollow&quot; target=&quot;_NEW&quot;&gt;\nhttp://bayimg.com/oapbpaaEJ&lt;/a&gt; &lt;a href=&quot;\nhttp://bayimg.com/PApBaaaEJ&quot; rel=&quot;nofollow&quot; target=&quot;_NEW&quot;&gt;\nhttp://bayimg.com/PApBaaaEJ&lt;/a&gt;","torrent":{"xt":"urn:btih:09c4fddcc6c8ff8a94f5740c349a88fff74d94e8","amp;dn":"Jobs.2013.HDRip.XViD-VAiN","amp;tr":["udp%3A%2F%2Ftracker.openbittorrent.com%3A80","udp%3A%2F%2Fopen.demonii.com%3A1337","udp%3A%2F%2Ftracker.coppersurfer.tk%3A6969","udp%3A%2F%2Fexodus.desync.com%3A6969"],"infoHash":"09c4fddcc6c8ff8a94f5740c349a88fff74d94e8","infoHashBuffer":{"type":"Buffer","data":[9,196,253,220,198,200,255,138,148,245,116,12,52,154,136,255,247,77,148,232]},"announce":[],"urlList":[]}}